<svg width="1010" height="170" viewBox="0 0 1010 170" fill="none" xmlns="http://www.w3.org/2000/svg">
<path fill-rule="evenodd" clip-rule="evenodd" d="M108.201 0H128.201V16H136.486L142.201 0H163.201L157.486 16H166.201V36H128.201V47H171.201V67H151.657C156.232 75.4221 163.002 82.4784 171.201 87.4006V109.683C166.993 107.984 162.979 105.907 159.201 103.495V111.5H171.201V169H135.701V149H151.201V131.5H74.2006V104.122C71.3258 105.893 68.3198 107.472 65.2006 108.84V86.1389C72.5011 81.3045 78.5467 74.7271 82.7441 67H65.2006V47H108.201V36H69.2006V16H78.9148L73.2006 0H94.2006L99.9148 16H108.201V0ZM139.201 98V111.5H94.2006V98H139.201ZM99.5115 78H134.89C132.885 74.5037 131.16 70.8269 129.745 67H104.657C103.241 70.8269 101.516 74.5037 99.5115 78Z" fill="black"/>
<path fill-rule="evenodd" clip-rule="evenodd" d="M62.2006 4H5.70062V115C5.70062 133.055 3.77308 148.593 1.85009 159.59C1.20678 163.269 0.565488 166.431 0 169H20.4345C20.7993 167.175 21.1755 165.183 21.5512 163.035C23.4479 152.188 25.3408 137.309 25.6551 120H42.2006V169H62.2006V4ZM42.2006 100V73H25.7006V100H42.2006ZM42.2006 53H25.7006V26H42.2006V53Z" fill="black"/>
<path d="M67.2006 139H130.201V159H67.2006V139Z" fill="black"/>
<path d="M220.2 2H196.2L209.2 43H233.2L220.2 2Z" fill="black"/>
<path d="M322.722 27H288.2V80H317.2V102H288.2V169H267.2V102H238.2V80H267.2V27H243.2V7H343.7L343.701 17.6257C343.701 18.0393 343.702 18.6523 343.703 19.4471C343.705 21.0368 343.71 23.3539 343.72 26.2594C343.739 32.0709 343.778 40.2337 343.856 49.6358C344.012 68.4575 344.324 92.1781 344.945 111.936C345.517 130.109 350.979 147.131 356.47 159.806C357.961 163.247 359.44 166.334 360.798 169H337.663C337.481 168.59 337.3 168.176 337.118 167.757C331.047 153.744 324.634 134.141 323.955 112.564C323.327 92.5719 323.013 68.6675 322.857 49.8017C322.782 40.7177 322.743 32.7864 322.722 27Z" fill="black"/>
<path d="M186.7 78H205.2V169.036L250.2 154.742V131.658L227.2 138.964V55H186.7V78Z" fill="black"/>
<path d="M529.2 10H388.2V30H529.2V10Z" fill="black"/>
<path d="M542.2 62H375.2V82H413.609L386.2 169H537.2L520.083 110H498.328L509.391 148.133H414.679L435.514 82H542.2V62Z" fill="black"/>
<path d="M767.179 4.77246L809.53 86.7556L766.987 168.772H809.358L851.882 86.7891L809.511 4.77246H767.179Z" fill="black"/>
<path d="M558.329 4.77255V41.4433H609.471V168.772H646.293V41.4433H697.434V4.77255H558.329Z" fill="black"/>
<path fill-rule="evenodd" clip-rule="evenodd" d="M872.338 4.77246H955.188C983.432 4.77246 1006.33 27.5753 1006.33 55.7041C1006.33 83.8329 983.432 106.636 955.188 106.636H909.16V168.772H872.338V4.77246ZM909.16 69.965V41.4433H955.188C963.096 41.4433 969.507 47.8281 969.507 55.7041C969.507 63.5802 963.096 69.965 955.188 69.965H909.16Z" fill="black"/>
<rect x="716.996" y="4.77246" width="37" height="164" fill="#6D49FF"/>
</svg>
